<?xml version="1.0" encoding="UTF-8"?>
<!DOCTYPE svg PUBLIC "-//W3C//DTD SVG 1.1//EN" "http://www.w3.org/Graphics/SVG/1.1/DTD/svg11.dtd">
<!-- Creator: CorelDRAW -->
<svg xmlns="http://www.w3.org/2000/svg" xml:space="preserve" width="106.222mm" height="25.3996mm" version="1.1" style="shape-rendering:geometricPrecision; text-rendering:geometricPrecision; image-rendering:optimizeQuality; fill-rule:evenodd; clip-rule:evenodd"
viewBox="0 0 6503.92 1555.2"
 xmlns:xlink="http://www.w3.org/1999/xlink"
 xmlns:xodm="http://www.corel.com/coreldraw/odm/2003">
 <defs>
  <style type="text/css">
   <![CDATA[
    .fil1 {fill:none}
    .fil0 {fill:#1C7800}
    .fil2 {fill:black;fill-rule:nonzero}
   ]]>
  </style>
    <clipPath id="id0">
     <path d="M114.9 89.74c52.76,-47.21 120.57,-79.22 198.52,-88.63 14.4,-1.73 107.01,-1.24 220.75,0.18 201.5,2.48 476.85,9.18 493.44,10.16l0.69 0.06c25.66,7.39 111.05,48.4 213.31,99.63 186.38,93.42 422.22,216.59 460.34,236.88 35.24,18.71 65.52,33.65 94.37,47.85 144.21,71.03 259.48,127.82 349.75,297.92 15.96,29.84 29.87,62.02 41.1,97.2 11.2,34.72 19.34,71.43 23.87,110.45 17.84,153.8 -23.84,290.88 -99.48,399.25 -84.47,121.03 -211.6,205.91 -345.4,237.83 -85.22,20.32 -164.47,21.09 -238.55,7.7 -73.8,-13.36 -141.45,-40.63 -204.13,-76.57 -31.83,-18.26 -58.53,-38.98 -82.63,-61.09 -22.22,-20.46 -42.54,-42.68 -62.8,-65.31 -6.18,-6.7 -11.46,-12.99 -16.25,-19.16 -4.87,-6.75 -12.32,-15.82 -16.19,-22.77 -2.8,4.65 -5.66,9.18 -9.18,13.79 -74.14,97.89 -165.97,164.24 -264.38,201.93 -95.47,36.54 -197,46.06 -294.43,31.43 -97.29,-14.63 -190.65,-53.45 -269.99,-113.51 -83.4,-63.15 -151.37,-149.72 -192.21,-256.33 -33.25,-86.84 -48.22,-224.71 -60.98,-342.71 -3.92,-36.68 -7.71,-71.37 -11.2,-98.07l-9.55 -66.72c-18.01,-123.67 -45.78,-314.37 -27.99,-394 16.36,-73.33 54.54,-138.53 109.18,-187.39zm591.31 785.13c-237.4,55.58 -152.84,416.8 86.2,359.65 86.69,-20.72 162.05,-109.09 136.94,-221.99 -19.65,-88.34 -111.05,-163.92 -223.14,-137.66zm965.8 0.2c-239.68,57.95 -151.63,416.71 86.2,359.54 83.8,-20.18 163.26,-109.96 136.42,-221.88 -21.01,-87.74 -107.51,-165.48 -222.62,-137.66zm-1366.8 -194.11c76.79,-93.97 190.27,-155.5 313.82,-168.6 128.17,-13.59 243.46,26.46 331.17,97.81 93.62,76.22 155.82,188.37 168.77,308.91l0.23 2.34c13.59,132.78 -29.09,252.29 -104.48,341.67 -75.29,89.23 -183.49,148.54 -300.92,161.15l-2.11 0.2c-130.36,13.37 -247.04,-26.6 -335.49,-98.1 -94.26,-76.16 -156.56,-188.28 -169.15,-309.81 -13.62,-131.45 26.35,-247.64 98.16,-335.58zm1291.3 -169.87l0.43 -0.03c127.99,-8.83 243.34,34.46 329.93,109.26 90.1,77.83 149.09,189.93 158.76,312.9l0.09 1.07c10.04,132.12 -35.49,250.3 -113.31,337.75 -77.63,87.27 -187.64,144.01 -306.52,153.45l-4.3 0.32c-130.65,9.12 -248.65,-36.08 -336.3,-113.42 -87.59,-77.31 -144.91,-187.01 -154,-306.75l-0.2 -3.06c-9.15,-132.61 36.28,-251.14 114.49,-338.79 78.07,-87.59 189.09,-144.18 310.94,-152.69z"/>
    </clipPath>
 </defs>
 <g id="Layer_x0020_1">
  <metadata id="CorelCorpID_0Corel-Layer"/>
  <g id="_105553264738400">
   <path class="fil0" d="M114.9 89.74c52.76,-47.21 120.57,-79.22 198.52,-88.63 14.4,-1.73 107.01,-1.24 220.75,0.18 201.5,2.48 476.85,9.18 493.44,10.16l0.69 0.06c25.66,7.39 111.05,48.4 213.31,99.63 186.38,93.42 422.22,216.59 460.34,236.88 35.24,18.71 65.52,33.65 94.37,47.85 144.21,71.03 259.48,127.82 349.75,297.92 15.96,29.84 29.87,62.02 41.1,97.2 11.2,34.72 19.34,71.43 23.87,110.45 17.84,153.8 -23.84,290.88 -99.48,399.25 -84.47,121.03 -211.6,205.91 -345.4,237.83 -85.22,20.32 -164.47,21.09 -238.55,7.7 -73.8,-13.36 -141.45,-40.63 -204.13,-76.57 -31.83,-18.26 -58.53,-38.98 -82.63,-61.09 -22.22,-20.46 -42.54,-42.68 -62.8,-65.31 -6.18,-6.7 -11.46,-12.99 -16.25,-19.16 -4.87,-6.75 -12.32,-15.82 -16.19,-22.77 -2.8,4.65 -5.66,9.18 -9.18,13.79 -74.14,97.89 -165.97,164.24 -264.38,201.93 -95.47,36.54 -197,46.06 -294.43,31.43 -97.29,-14.63 -190.65,-53.45 -269.99,-113.51 -83.4,-63.15 -151.37,-149.72 -192.21,-256.33 -33.25,-86.84 -48.22,-224.71 -60.98,-342.71 -3.92,-36.68 -7.71,-71.37 -11.2,-98.07l-9.55 -66.72c-18.01,-123.67 -45.78,-314.37 -27.99,-394 16.36,-73.33 54.54,-138.53 109.18,-187.39zm591.31 785.13c-237.4,55.58 -152.84,416.8 86.2,359.65 86.69,-20.72 162.05,-109.09 136.94,-221.99 -19.65,-88.34 -111.05,-163.92 -223.14,-137.66zm965.8 0.2c-239.68,57.95 -151.63,416.71 86.2,359.54 83.8,-20.18 163.26,-109.96 136.42,-221.88 -21.01,-87.74 -107.51,-165.48 -222.62,-137.66zm-1366.8 -194.11c76.79,-93.97 190.27,-155.5 313.82,-168.6 128.17,-13.59 243.46,26.46 331.17,97.81 93.62,76.22 155.82,188.37 168.77,308.91l0.23 2.34c13.59,132.78 -29.09,252.29 -104.48,341.67 -75.29,89.23 -183.49,148.54 -300.92,161.15l-2.11 0.2c-130.36,13.37 -247.04,-26.6 -335.49,-98.1 -94.26,-76.16 -156.56,-188.28 -169.15,-309.81 -13.62,-131.45 26.35,-247.64 98.16,-335.58zm1291.3 -169.87l0.43 -0.03c127.99,-8.83 243.34,34.46 329.93,109.26 90.1,77.83 149.09,189.93 158.76,312.9l0.09 1.07c10.04,132.12 -35.49,250.3 -113.31,337.75 -77.63,87.27 -187.64,144.01 -306.52,153.45l-4.3 0.32c-130.65,9.12 -248.65,-36.08 -336.3,-113.42 -87.59,-77.31 -144.91,-187.01 -154,-306.75l-0.2 -3.06c-9.15,-132.61 36.28,-251.14 114.49,-338.79 78.07,-87.59 189.09,-144.18 310.94,-152.69z"/>
   <g style="clip-path:url(#id0)">
   </g>
   <path id="_1" class="fil1" d="M114.9 89.74c52.76,-47.21 120.57,-79.22 198.52,-88.63 14.4,-1.73 107.01,-1.24 220.75,0.18 201.5,2.48 476.85,9.18 493.44,10.16l0.69 0.06c25.66,7.39 111.05,48.4 213.31,99.63 186.38,93.42 422.22,216.59 460.34,236.88 35.24,18.71 65.52,33.65 94.37,47.85 144.21,71.03 259.48,127.82 349.75,297.92 15.96,29.84 29.87,62.02 41.1,97.2 11.2,34.72 19.34,71.43 23.87,110.45 17.84,153.8 -23.84,290.88 -99.48,399.25 -84.47,121.03 -211.6,205.91 -345.4,237.83 -85.22,20.32 -164.47,21.09 -238.55,7.7 -73.8,-13.36 -141.45,-40.63 -204.13,-76.57 -31.83,-18.26 -58.53,-38.98 -82.63,-61.09 -22.22,-20.46 -42.54,-42.68 -62.8,-65.31 -6.18,-6.7 -11.46,-12.99 -16.25,-19.16 -4.87,-6.75 -12.32,-15.82 -16.19,-22.77 -2.8,4.65 -5.66,9.18 -9.18,13.79 -74.14,97.89 -165.97,164.24 -264.38,201.93 -95.47,36.54 -197,46.06 -294.43,31.43 -97.29,-14.63 -190.65,-53.45 -269.99,-113.51 -83.4,-63.15 -151.37,-149.72 -192.21,-256.33 -33.25,-86.84 -48.22,-224.71 -60.98,-342.71 -3.92,-36.68 -7.71,-71.37 -11.2,-98.07l-9.55 -66.72c-18.01,-123.67 -45.78,-314.37 -27.99,-394 16.36,-73.33 54.54,-138.53 109.18,-187.39zm591.31 785.13c-237.4,55.58 -152.84,416.8 86.2,359.65 86.69,-20.72 162.05,-109.09 136.94,-221.99 -19.65,-88.34 -111.05,-163.92 -223.14,-137.66zm965.8 0.2c-239.68,57.95 -151.63,416.71 86.2,359.54 83.8,-20.18 163.26,-109.96 136.42,-221.88 -21.01,-87.74 -107.51,-165.48 -222.62,-137.66zm-1366.8 -194.11c76.79,-93.97 190.27,-155.5 313.82,-168.6 128.17,-13.59 243.46,26.46 331.17,97.81 93.62,76.22 155.82,188.37 168.77,308.91l0.23 2.34c13.59,132.78 -29.09,252.29 -104.48,341.67 -75.29,89.23 -183.49,148.54 -300.92,161.15l-2.11 0.2c-130.36,13.37 -247.04,-26.6 -335.49,-98.1 -94.26,-76.16 -156.56,-188.28 -169.15,-309.81 -13.62,-131.45 26.35,-247.64 98.16,-335.58zm1291.3 -169.87l0.43 -0.03c127.99,-8.83 243.34,34.46 329.93,109.26 90.1,77.83 149.09,189.93 158.76,312.9l0.09 1.07c10.04,132.12 -35.49,250.3 -113.31,337.75 -77.63,87.27 -187.64,144.01 -306.52,153.45l-4.3 0.32c-130.65,9.12 -248.65,-36.08 -336.3,-113.42 -87.59,-77.31 -144.91,-187.01 -154,-306.75l-0.2 -3.06c-9.15,-132.61 36.28,-251.14 114.49,-338.79 78.07,-87.59 189.09,-144.18 310.94,-152.69z"/>
   <path class="fil2" d="M2602.77 1220.54l0 -791.47 273.32 0c62.25,0 114.07,10.63 155.44,31.89 41.38,21.25 72.51,49.53 93.39,84.84 20.87,35.3 31.31,74.21 31.31,116.73 0,53.14 -16.51,96.8 -49.53,130.96 -33.03,34.16 -74.6,57.32 -124.7,69.46 41,13.67 77.63,37.39 109.89,71.18 32.27,33.78 58.84,74.97 79.71,123.55 20.88,48.59 34.36,102.88 40.43,162.85l-138.94 0c-5.31,-56.18 -18.79,-107.05 -40.43,-152.6 -21.63,-45.55 -53.71,-81.99 -96.23,-109.33 -25.81,-16.7 -55.61,-29.6 -89.4,-38.72 -33.79,-9.11 -71.93,-13.67 -114.45,-13.67l0 314.31 -129.82 0zm129.82 -420.22l143.49 0c47.07,0 83.32,-13.1 108.76,-39.29 25.43,-26.19 38.15,-57.89 38.15,-95.09 0,-38.72 -12.72,-70.23 -38.15,-94.52 -25.43,-24.3 -61.69,-36.44 -108.76,-36.44l-143.49 0 0 265.34zm769.62 428.19c-50.87,0 -96.99,-7.97 -138.37,-23.92 -41.38,-15.94 -76.68,-38.34 -105.91,-67.19 -29.23,-28.85 -51.63,-62.45 -67.19,-100.78 -15.56,-38.34 -23.34,-80.29 -23.34,-125.84 0,-49.35 8.92,-93.95 26.76,-133.81 17.84,-39.86 42.14,-74.21 72.89,-103.06 30.74,-28.85 66.24,-50.87 106.48,-66.05 40.23,-15.18 82.37,-22.77 126.41,-22.77 39.47,0 75.54,5.31 108.19,15.94 32.64,10.63 60.92,25.43 84.84,44.42 23.92,18.98 42.33,41 55.24,66.05 12.9,25.06 19.35,52.01 19.35,80.86 0,40.23 -11.77,73.64 -35.3,100.21 -23.54,26.57 -54.29,47.45 -92.25,62.63 -37.96,15.18 -79.71,25.43 -125.26,30.75 -45.55,5.31 -90.73,6.83 -135.52,4.56 -7.59,-0.76 -17.08,-1.33 -28.47,-1.71 -11.39,-0.38 -21.45,-0.76 -30.18,-1.14 -8.73,-0.38 -13.48,-0.57 -14.24,-0.57 5.31,25.06 17.27,47.64 35.87,67.76 18.6,20.12 41.95,35.87 70.03,47.26 28.09,11.39 58.08,17.08 89.97,17.08 25.81,0 51.43,-4.56 76.87,-13.67 25.43,-9.11 48.78,-21.64 70.03,-37.58 21.26,-15.94 39.1,-34.16 53.53,-54.66l96.8 69.46c-25.06,33.41 -53.33,60.93 -84.84,82.56 -31.51,21.64 -65.11,37.58 -100.78,47.83 -35.68,10.25 -72.89,15.37 -111.6,15.37zm-111.6 -341.64c28.09,0 56.56,-1.33 85.41,-3.99 28.85,-2.66 55.61,-7.59 80.28,-14.81 24.68,-7.21 44.61,-17.27 59.79,-30.18 15.18,-12.91 22.77,-29.6 22.77,-50.1 0,-17.46 -5.5,-33.22 -16.51,-47.26 -11.01,-14.05 -26.38,-25.24 -46.12,-33.59 -19.74,-8.35 -42.9,-12.53 -69.46,-12.53 -39.48,0 -74.79,8.73 -105.91,26.19 -31.13,17.46 -55.61,40.62 -73.46,69.47 -17.84,28.85 -27.52,59.97 -29.04,93.38 10.63,0.76 23.92,1.52 39.86,2.28 15.94,0.76 33.41,1.14 52.39,1.14zm679.65 341.64c-59.98,0 -113.12,-13.29 -159.44,-39.86 -46.31,-26.57 -82.56,-64.15 -108.76,-112.74 -26.19,-48.59 -39.28,-105.15 -39.28,-169.68 0,-65.3 13.1,-121.85 39.28,-169.69 26.19,-47.83 62.45,-85.03 108.76,-111.6 46.31,-26.57 99.46,-39.85 159.44,-39.85 36.44,0 69.65,3.8 99.64,11.38 29.99,7.59 56.56,19.17 79.71,34.74 23.16,15.56 43.28,35.3 60.36,59.22 17.08,23.91 31.32,52.19 42.7,84.84l-124.12 39.86c-14.43,-40.24 -34.93,-70.42 -61.5,-90.54 -26.57,-20.11 -58.84,-30.17 -96.8,-30.17 -34.93,0 -65.48,8.16 -91.67,24.48 -26.19,16.32 -46.5,40.24 -60.93,71.75 -14.43,31.5 -21.64,70.03 -21.64,115.59 0,44.79 7.21,83.13 21.64,115.02 14.43,31.88 34.74,56.18 60.93,72.88 26.19,16.7 56.75,25.06 91.67,25.06 44.04,0 80.09,-11.96 108.19,-35.87 28.09,-23.92 48.21,-56.37 60.35,-97.37l120.71 28.47c-11.39,39.47 -29.41,75.54 -54.09,108.19 -24.68,32.65 -56.18,58.46 -94.52,77.44 -38.34,18.98 -85.23,28.47 -140.64,28.47zm309.53 -7.97l0 -627.48 129.82 0 0 627.48 -129.82 0zm92.24 -316.59l37.58 -173.1c15.18,-44.79 40.05,-80.28 74.59,-106.48 34.55,-26.19 73.84,-39.28 117.87,-39.28l0 134.37c-6.07,-1.52 -11.95,-2.47 -17.65,-2.85 -5.69,-0.38 -11.58,-0.57 -17.65,-0.57 -31.13,0 -58.46,7.02 -82,21.07 -23.53,14.05 -41.94,34.93 -55.23,62.64 -13.29,27.71 -19.93,62.44 -19.93,104.2l-37.58 0zm678.51 243.71l0 -554.6 129.82 0 0 627.48 -56.94 0c-21.26,0 -38.72,-6.83 -52.39,-20.5 -13.67,-13.67 -20.5,-31.13 -20.5,-52.38zm-198.15 80.85c-48.59,0 -91.48,-10.06 -128.69,-30.18 -37.2,-20.12 -66.05,-49.91 -86.55,-89.4 -20.5,-39.48 -30.75,-88.45 -30.75,-146.91l0 -368.97 128.69 0 0 341.64c0,57.7 14.43,102.3 43.28,133.8 28.85,31.51 66.81,47.26 113.88,47.26 31.89,0 59.78,-8.35 83.7,-25.06 23.92,-16.7 42.33,-39.48 55.24,-68.33 12.9,-28.85 19.35,-61.88 19.35,-99.08l22.78 33.02c-2.28,62.26 -13.86,113.5 -34.73,153.74 -20.88,40.24 -47.64,70.03 -80.29,89.4 -32.65,19.36 -67.95,29.04 -105.91,29.04zm392.67 -7.97l0 -627.48 129.82 0 0 627.48 -129.82 0zm66.05 -710.62c-27.33,0 -50.49,-8.73 -69.47,-26.19 -18.98,-17.27 -28.47,-38.91 -28.47,-64.91 0,-25.81 9.49,-47.64 28.47,-65.48 18.98,-17.84 42.14,-26.76 69.47,-26.76 26.76,0 49.91,8.92 69.09,26.76 19.17,17.84 28.85,39.66 28.85,65.48 0,26 -9.68,47.64 -28.85,64.91 -19.17,17.46 -42.33,26.19 -69.09,26.19zm341.42 718.59c-47.83,0 -87.69,-16.32 -119.58,-48.97 -31.88,-32.64 -47.83,-77.06 -47.83,-133.24l0 -347.34 -96.8 0 0 -105.91 380.36 0 0 105.91 -152.6 0 0 355.3c0,21.26 5.5,36.44 16.51,45.55 11,9.11 22.96,13.67 35.87,13.67 11.39,0 21.64,-1.9 30.75,-5.69 9.11,-3.8 17.84,-9.87 26.19,-18.22l67.19 80.85c-21.26,20.5 -42.89,35.3 -64.91,44.42 -22.02,9.11 -47.07,13.67 -75.17,13.67zm-217.51 -586.49l0 -48.97c15.94,0 28.28,-4.56 37.01,-13.67 8.73,-9.11 13.1,-21.64 13.1,-37.58l0 -104.77 130.96 0 0 83.13c0,10.63 -2.66,21.07 -7.97,31.32 -5.31,10.25 -12.72,18.98 -22.21,26.19 -9.49,7.21 -19.93,12.34 -31.32,15.37l-119.58 48.97zm618.15 586.49c-54.66,0 -104.2,-13.48 -148.62,-40.43 -44.4,-26.95 -79.71,-64.53 -105.9,-112.74 -26.19,-48.21 -39.28,-104.58 -39.28,-169.11 0,-64.54 13.1,-120.9 39.28,-169.12 26.19,-48.21 61.5,-85.6 105.9,-112.17 44.42,-26.57 93.96,-39.85 148.62,-39.85 51.63,0 96.8,12.71 135.52,38.15 38.72,25.43 66.81,60.55 84.27,105.34l0 -135.51 130.96 0 0 627.48 -58.08 0c-21.25,0 -38.72,-6.83 -52.38,-20.5 -13.67,-13.67 -20.5,-31.13 -20.5,-52.38l0 -63.78c-17.46,44.8 -45.55,80.09 -84.27,105.91 -38.72,25.81 -83.89,38.72 -135.52,38.72zm29.61 -112.74c32.65,0 63.39,-7.97 92.24,-23.92 28.85,-15.94 52.39,-39.67 70.6,-71.17 18.22,-31.51 27.33,-69.66 27.33,-114.45 0,-45.55 -9.11,-83.71 -27.33,-114.45 -18.22,-30.75 -41.75,-54.1 -70.6,-70.04 -28.85,-15.94 -59.59,-23.91 -92.24,-23.91 -31.89,0 -62.45,7.97 -91.67,23.91 -29.23,15.94 -52.96,39.29 -71.18,70.04 -18.22,30.74 -27.33,68.9 -27.33,114.45 0,44.79 9.11,82.94 27.33,114.45 18.22,31.5 41.95,55.23 71.18,71.17 29.22,15.94 59.78,23.92 91.67,23.92z"/>
  </g>
 </g>
</svg>
