<?xml version="1.0" encoding="UTF-8"?>
<!DOCTYPE svg PUBLIC "-//W3C//DTD SVG 1.1//EN" "http://www.w3.org/Graphics/SVG/1.1/DTD/svg11.dtd">
<!-- Creator: CorelDRAW -->
<svg xmlns="http://www.w3.org/2000/svg" xml:space="preserve" width="106.22mm" height="25.3992mm" version="1.1" style="shape-rendering:geometricPrecision; text-rendering:geometricPrecision; image-rendering:optimizeQuality; fill-rule:evenodd; clip-rule:evenodd"
viewBox="0 0 6503.63 1555.14"
 xmlns:xlink="http://www.w3.org/1999/xlink"
 xmlns:xodm="http://www.corel.com/coreldraw/odm/2003">
 <defs>
  <style type="text/css">
   <![CDATA[
    .fil1 {fill:none}
    .fil0 {fill:black}
    .fil2 {fill:black;fill-rule:nonzero}
   ]]>
  </style>
    <clipPath id="id0">
     <path d="M114.89 89.74c52.75,-47.21 120.57,-79.22 198.51,-88.63 14.4,-1.73 107.01,-1.24 220.74,0.17 201.48,2.49 476.82,9.18 493.42,10.16l0.69 0.06c25.65,7.39 111.04,48.39 213.29,99.62 186.37,93.42 422.2,216.59 460.32,236.87 35.24,18.7 65.51,33.65 94.36,47.85 144.2,71.02 259.47,127.81 349.73,297.91 15.96,29.84 29.87,62.01 41.09,97.19 11.2,34.72 19.34,71.42 23.87,110.44 17.84,153.79 -23.84,290.86 -99.47,399.23 -84.47,121.04 -211.59,205.9 -345.38,237.82 -85.22,20.32 -164.46,21.1 -238.54,7.71 -73.79,-13.36 -141.43,-40.64 -204.11,-76.57 -31.83,-18.26 -58.53,-38.98 -82.62,-61.09 -22.23,-20.46 -42.54,-42.68 -62.8,-65.31 -6.18,-6.69 -11.46,-12.99 -16.25,-19.16 -4.87,-6.75 -12.32,-15.82 -16.19,-22.76 -2.8,4.64 -5.66,9.17 -9.18,13.79 -74.13,97.89 -165.96,164.23 -264.37,201.92 -95.46,36.53 -196.98,46.06 -294.41,31.42 -97.28,-14.63 -190.64,-53.45 -269.97,-113.5 -83.4,-63.14 -151.36,-149.72 -192.2,-256.33 -33.24,-86.83 -48.22,-224.69 -60.98,-342.69 -3.92,-36.68 -7.7,-71.37 -11.19,-98.06l-9.55 -66.72c-18.01,-123.66 -45.77,-314.36 -27.99,-393.98 16.36,-73.33 54.54,-138.52 109.17,-187.38zm591.27 785.1c-237.39,55.58 -152.83,416.77 86.2,359.64 86.69,-20.72 162.03,-109.08 136.93,-221.98 -19.65,-88.33 -111.05,-163.92 -223.13,-137.65zm965.74 0.2c-239.67,57.95 -151.63,416.69 86.2,359.52 83.8,-20.17 163.25,-109.95 136.41,-221.87 -21.01,-87.73 -107.49,-165.47 -222.61,-137.65zm-1366.73 -194.11c76.79,-93.97 190.26,-155.49 313.81,-168.59 128.16,-13.59 243.44,26.46 331.15,97.8 93.62,76.22 155.81,188.36 168.76,308.9l0.23 2.34c13.59,132.78 -29.09,252.28 -104.47,341.66 -75.29,89.23 -183.48,148.54 -300.91,161.15l-2.11 0.2c-130.35,13.37 -247.02,-26.6 -335.48,-98.09 -94.25,-76.16 -156.55,-188.28 -169.14,-309.8 -13.62,-131.45 26.35,-247.64 98.15,-335.57zm1291.23 -169.87l0.43 -0.02c127.99,-8.84 243.33,34.45 329.91,109.26 90.1,77.83 149.08,189.92 158.75,312.89l0.09 1.07c10.04,132.12 -35.5,250.29 -113.3,337.73 -77.63,87.27 -187.64,144.01 -306.51,153.44l-4.3 0.32c-130.64,9.12 -248.64,-36.08 -336.28,-113.42 -87.59,-77.31 -144.9,-187 -153.99,-306.73l-0.2 -3.06c-9.15,-132.61 36.28,-251.13 114.48,-338.77 78.07,-87.59 189.08,-144.17 310.92,-152.69z"/>
    </clipPath>
 </defs>
 <g id="Layer_x0020_1">
  <metadata id="CorelCorpID_0Corel-Layer"/>
  <g id="_105553264900896">
   <path class="fil0" d="M114.89 89.74c52.75,-47.21 120.57,-79.22 198.51,-88.63 14.4,-1.73 107.01,-1.24 220.74,0.17 201.48,2.49 476.82,9.18 493.42,10.16l0.69 0.06c25.65,7.39 111.04,48.39 213.29,99.62 186.37,93.42 422.2,216.59 460.32,236.87 35.24,18.7 65.51,33.65 94.36,47.85 144.2,71.02 259.47,127.81 349.73,297.91 15.96,29.84 29.87,62.01 41.09,97.19 11.2,34.72 19.34,71.42 23.87,110.44 17.84,153.79 -23.84,290.86 -99.47,399.23 -84.47,121.04 -211.59,205.9 -345.38,237.82 -85.22,20.32 -164.46,21.1 -238.54,7.71 -73.79,-13.36 -141.43,-40.64 -204.11,-76.57 -31.83,-18.26 -58.53,-38.98 -82.62,-61.09 -22.23,-20.46 -42.54,-42.68 -62.8,-65.31 -6.18,-6.69 -11.46,-12.99 -16.25,-19.16 -4.87,-6.75 -12.32,-15.82 -16.19,-22.76 -2.8,4.64 -5.66,9.17 -9.18,13.79 -74.13,97.89 -165.96,164.23 -264.37,201.92 -95.46,36.53 -196.98,46.06 -294.41,31.42 -97.28,-14.63 -190.64,-53.45 -269.97,-113.5 -83.4,-63.14 -151.36,-149.72 -192.2,-256.33 -33.24,-86.83 -48.22,-224.69 -60.98,-342.69 -3.92,-36.68 -7.7,-71.37 -11.19,-98.06l-9.55 -66.72c-18.01,-123.66 -45.77,-314.36 -27.99,-393.98 16.36,-73.33 54.54,-138.52 109.17,-187.38zm591.27 785.1c-237.39,55.58 -152.83,416.77 86.2,359.64 86.69,-20.72 162.03,-109.08 136.93,-221.98 -19.65,-88.33 -111.05,-163.92 -223.13,-137.65zm965.74 0.2c-239.67,57.95 -151.63,416.69 86.2,359.52 83.8,-20.17 163.25,-109.95 136.41,-221.87 -21.01,-87.73 -107.49,-165.47 -222.61,-137.65zm-1366.73 -194.11c76.79,-93.97 190.26,-155.49 313.81,-168.59 128.16,-13.59 243.44,26.46 331.15,97.8 93.62,76.22 155.81,188.36 168.76,308.9l0.23 2.34c13.59,132.78 -29.09,252.28 -104.47,341.66 -75.29,89.23 -183.48,148.54 -300.91,161.15l-2.11 0.2c-130.35,13.37 -247.02,-26.6 -335.48,-98.09 -94.25,-76.16 -156.55,-188.28 -169.14,-309.8 -13.62,-131.45 26.35,-247.64 98.15,-335.57zm1291.23 -169.87l0.43 -0.02c127.99,-8.84 243.33,34.45 329.91,109.26 90.1,77.83 149.08,189.92 158.75,312.89l0.09 1.07c10.04,132.12 -35.5,250.29 -113.3,337.73 -77.63,87.27 -187.64,144.01 -306.51,153.44l-4.3 0.32c-130.64,9.12 -248.64,-36.08 -336.28,-113.42 -87.59,-77.31 -144.9,-187 -153.99,-306.73l-0.2 -3.06c-9.15,-132.61 36.28,-251.13 114.48,-338.77 78.07,-87.59 189.08,-144.17 310.92,-152.69z"/>
   <g style="clip-path:url(#id0)">
   </g>
   <path id="_1" class="fil1" d="M114.89 89.74c52.75,-47.21 120.57,-79.22 198.51,-88.63 14.4,-1.73 107.01,-1.24 220.74,0.17 201.48,2.49 476.82,9.18 493.42,10.16l0.69 0.06c25.65,7.39 111.04,48.39 213.29,99.62 186.37,93.42 422.2,216.59 460.32,236.87 35.24,18.7 65.51,33.65 94.36,47.85 144.2,71.02 259.47,127.81 349.73,297.91 15.96,29.84 29.87,62.01 41.09,97.19 11.2,34.72 19.34,71.42 23.87,110.44 17.84,153.79 -23.84,290.86 -99.47,399.23 -84.47,121.04 -211.59,205.9 -345.38,237.82 -85.22,20.32 -164.46,21.1 -238.54,7.71 -73.79,-13.36 -141.43,-40.64 -204.11,-76.57 -31.83,-18.26 -58.53,-38.98 -82.62,-61.09 -22.23,-20.46 -42.54,-42.68 -62.8,-65.31 -6.18,-6.69 -11.46,-12.99 -16.25,-19.16 -4.87,-6.75 -12.32,-15.82 -16.19,-22.76 -2.8,4.64 -5.66,9.17 -9.18,13.79 -74.13,97.89 -165.96,164.23 -264.37,201.92 -95.46,36.53 -196.98,46.06 -294.41,31.42 -97.28,-14.63 -190.64,-53.45 -269.97,-113.5 -83.4,-63.14 -151.36,-149.72 -192.2,-256.33 -33.24,-86.83 -48.22,-224.69 -60.98,-342.69 -3.92,-36.68 -7.7,-71.37 -11.19,-98.06l-9.55 -66.72c-18.01,-123.66 -45.77,-314.36 -27.99,-393.98 16.36,-73.33 54.54,-138.52 109.17,-187.38zm591.27 785.1c-237.39,55.58 -152.83,416.77 86.2,359.64 86.69,-20.72 162.03,-109.08 136.93,-221.98 -19.65,-88.33 -111.05,-163.92 -223.13,-137.65zm965.74 0.2c-239.67,57.95 -151.63,416.69 86.2,359.52 83.8,-20.17 163.25,-109.95 136.41,-221.87 -21.01,-87.73 -107.49,-165.47 -222.61,-137.65zm-1366.73 -194.11c76.79,-93.97 190.26,-155.49 313.81,-168.59 128.16,-13.59 243.44,26.46 331.15,97.8 93.62,76.22 155.81,188.36 168.76,308.9l0.23 2.34c13.59,132.78 -29.09,252.28 -104.47,341.66 -75.29,89.23 -183.48,148.54 -300.91,161.15l-2.11 0.2c-130.35,13.37 -247.02,-26.6 -335.48,-98.09 -94.25,-76.16 -156.55,-188.28 -169.14,-309.8 -13.62,-131.45 26.35,-247.64 98.15,-335.57zm1291.23 -169.87l0.43 -0.02c127.99,-8.84 243.33,34.45 329.91,109.26 90.1,77.83 149.08,189.92 158.75,312.89l0.09 1.07c10.04,132.12 -35.5,250.29 -113.3,337.73 -77.63,87.27 -187.64,144.01 -306.51,153.44l-4.3 0.32c-130.64,9.12 -248.64,-36.08 -336.28,-113.42 -87.59,-77.31 -144.9,-187 -153.99,-306.73l-0.2 -3.06c-9.15,-132.61 36.28,-251.13 114.48,-338.77 78.07,-87.59 189.08,-144.17 310.92,-152.69z"/>
   <path class="fil2" d="M2602.63 1220.5l0 -791.46 273.31 0c62.25,0 114.07,10.62 155.44,31.88 41.38,21.26 72.51,49.54 93.39,84.84 20.88,35.3 31.32,74.21 31.32,116.73 0,53.15 -16.51,96.8 -49.54,130.96 -33.03,34.17 -74.59,57.32 -124.7,69.47 40.99,13.66 77.62,37.39 109.89,71.17 32.27,33.79 58.84,74.97 79.71,123.56 20.88,48.59 34.36,102.87 40.43,162.85l-138.93 0c-5.31,-56.18 -18.79,-107.05 -40.43,-152.6 -21.63,-45.55 -53.71,-81.99 -96.23,-109.32 -25.81,-16.7 -55.61,-29.61 -89.39,-38.72 -33.79,-9.11 -71.94,-13.67 -114.45,-13.67l0 314.31 -129.82 0zm129.82 -420.21l143.49 0c47.07,0 83.32,-13.1 108.75,-39.29 25.43,-26.19 38.15,-57.89 38.15,-95.09 0,-38.72 -12.71,-70.23 -38.15,-94.52 -25.43,-24.3 -61.69,-36.44 -108.75,-36.44l-143.49 0 0 265.34zm769.59 428.19c-50.86,0 -96.99,-7.97 -138.36,-23.92 -41.37,-15.94 -76.68,-38.34 -105.91,-67.19 -29.23,-28.85 -51.62,-62.45 -67.18,-100.79 -15.56,-38.33 -23.35,-80.28 -23.35,-125.84 0,-49.34 8.92,-93.95 26.76,-133.81 17.84,-39.86 42.12,-74.21 72.87,-103.06 30.75,-28.85 66.24,-50.87 106.48,-66.05 40.24,-15.18 82.38,-22.78 126.41,-22.78 39.48,0 75.54,5.31 108.18,15.94 32.64,10.63 60.92,25.43 84.84,44.41 23.92,18.98 42.33,41 55.23,66.05 12.91,25.05 19.35,52 19.35,80.85 0,40.24 -11.76,73.64 -35.3,100.21 -23.54,26.57 -54.28,47.45 -92.25,62.64 -37.96,15.18 -79.71,25.43 -125.26,30.75 -45.55,5.31 -90.72,6.83 -135.52,4.56 -7.59,-0.76 -17.08,-1.33 -28.47,-1.71 -11.39,-0.38 -21.44,-0.76 -30.17,-1.14 -8.73,-0.38 -13.48,-0.57 -14.24,-0.57 5.31,25.05 17.27,47.64 35.87,67.75 18.6,20.12 41.95,35.87 70.04,47.26 28.09,11.39 58.08,17.08 89.96,17.08 25.81,0 51.44,-4.56 76.87,-13.67 25.43,-9.11 48.77,-21.64 70.03,-37.58 21.26,-15.94 39.1,-34.17 53.53,-54.66l96.8 69.47c-25.05,33.41 -53.33,60.93 -84.84,82.56 -31.51,21.64 -65.1,37.58 -100.78,47.83 -35.68,10.25 -72.88,15.37 -111.6,15.37zm-111.6 -341.64c28.09,0 56.56,-1.33 85.41,-3.99 28.84,-2.66 55.61,-7.59 80.28,-14.8 24.67,-7.21 44.6,-17.27 59.79,-30.17 15.18,-12.91 22.77,-29.61 22.77,-50.11 0,-17.46 -5.5,-33.22 -16.51,-47.26 -11.01,-14.05 -26.38,-25.24 -46.12,-33.59 -19.74,-8.35 -42.89,-12.53 -69.46,-12.53 -39.47,0 -74.78,8.73 -105.91,26.19 -31.13,17.46 -55.61,40.61 -73.45,69.46 -17.84,28.85 -27.52,59.98 -29.04,93.38 10.63,0.76 23.92,1.52 39.86,2.28 15.94,0.76 33.4,1.14 52.38,1.14zm679.63 341.64c-59.98,0 -113.12,-13.29 -159.43,-39.86 -46.31,-26.57 -82.56,-64.15 -108.75,-112.74 -26.19,-48.59 -39.28,-105.15 -39.28,-169.68 0,-65.29 13.1,-121.85 39.28,-169.68 26.19,-47.83 62.45,-85.03 108.75,-111.6 46.31,-26.57 99.45,-39.86 159.43,-39.86 36.44,0 69.65,3.8 99.64,11.39 29.99,7.59 56.55,19.17 79.71,34.73 23.16,15.56 43.28,35.3 60.36,59.22 17.08,23.92 31.32,52.19 42.71,84.84l-124.13 39.86c-14.41,-40.24 -34.91,-70.42 -61.49,-90.54 -26.57,-20.11 -58.84,-30.17 -96.8,-30.17 -34.92,0 -65.48,8.16 -91.68,24.49 -26.19,16.32 -46.5,40.23 -60.92,71.74 -14.43,31.51 -21.64,70.04 -21.64,115.59 0,44.79 7.21,83.14 21.64,115.02 14.43,31.89 34.73,56.18 60.92,72.89 26.19,16.7 56.75,25.05 91.68,25.05 44.03,0 80.09,-11.96 108.18,-35.87 28.09,-23.92 48.2,-56.37 60.35,-97.36l120.72 28.46c-11.39,39.48 -29.42,75.54 -54.09,108.19 -24.67,32.64 -56.18,58.45 -94.51,77.44 -38.34,18.98 -85.22,28.47 -140.64,28.47zm309.51 -7.97l0 -627.48 129.82 0 0 627.48 -129.82 0zm92.25 -316.59l37.58 -173.1c15.18,-44.79 40.05,-80.28 74.59,-106.48 34.54,-26.19 73.83,-39.29 117.86,-39.29l0 134.38c-6.07,-1.52 -11.96,-2.47 -17.65,-2.85 -5.69,-0.38 -11.58,-0.57 -17.65,-0.57 -31.12,0 -58.45,7.02 -81.99,21.06 -23.54,14.05 -41.94,34.92 -55.23,62.64 -13.29,27.71 -19.93,62.45 -19.93,104.2l-37.58 0zm678.48 243.71l0 -554.6 129.82 0 0 627.48 -56.94 0c-21.25,0 -38.71,-6.83 -52.38,-20.5 -13.67,-13.67 -20.5,-31.13 -20.5,-52.38zm-198.15 80.85c-48.59,0 -91.48,-10.06 -128.68,-30.18 -37.2,-20.12 -66.05,-49.91 -86.55,-89.39 -20.5,-39.48 -30.75,-88.45 -30.75,-146.9l0 -368.97 128.69 0 0 341.64c0,57.7 14.42,102.3 43.27,133.81 28.84,31.51 66.81,47.26 113.87,47.26 31.89,0 59.79,-8.35 83.7,-25.05 23.92,-16.7 42.33,-39.48 55.23,-68.33 12.91,-28.84 19.36,-61.87 19.36,-99.07l22.78 33.03c-2.28,62.25 -13.86,113.5 -34.73,153.74 -20.87,40.23 -47.64,70.03 -80.28,89.39 -32.65,19.36 -67.95,29.04 -105.91,29.04zm392.65 -7.97l0 -627.48 129.82 0 0 627.48 -129.82 0zm66.05 -710.61c-27.33,0 -50.49,-8.73 -69.47,-26.19 -18.97,-17.27 -28.46,-38.91 -28.46,-64.91 0,-25.81 9.49,-47.64 28.46,-65.48 18.98,-17.84 42.14,-26.76 69.47,-26.76 26.76,0 49.92,8.92 69.08,26.76 19.17,17.84 28.85,39.67 28.85,65.48 0,26 -9.68,47.64 -28.85,64.91 -19.16,17.46 -42.32,26.19 -69.08,26.19zm341.41 718.58c-47.83,0 -87.68,-16.32 -119.57,-48.97 -31.89,-32.64 -47.83,-77.06 -47.83,-133.24l0 -347.33 -96.79 0 0 -105.91 380.35 0 0 105.91 -152.6 0 0 355.3c0,21.26 5.5,36.44 16.51,45.55 11.01,9.11 22.97,13.67 35.87,13.67 11.39,0 21.64,-1.9 30.75,-5.69 9.11,-3.8 17.84,-9.87 26.19,-18.22l67.19 80.85c-21.25,20.5 -42.89,35.3 -64.91,44.41 -22.01,9.11 -47.07,13.67 -75.16,13.67zm-217.51 -586.48l0 -48.97c15.94,0 28.28,-4.56 37.01,-13.66 8.73,-9.11 13.1,-21.64 13.1,-37.58l0 -104.77 130.96 0 0 83.13c0,10.63 -2.66,21.07 -7.97,31.32 -5.31,10.25 -12.72,18.98 -22.21,26.19 -9.49,7.21 -19.92,12.33 -31.31,15.37l-119.57 48.97zm618.13 586.48c-54.66,0 -104.2,-13.48 -148.61,-40.43 -44.41,-26.95 -79.72,-64.53 -105.91,-112.74 -26.18,-48.21 -39.28,-104.58 -39.28,-169.11 0,-64.53 13.1,-120.9 39.28,-169.11 26.19,-48.2 61.5,-85.6 105.91,-112.17 44.41,-26.57 93.95,-39.86 148.61,-39.86 51.62,0 96.79,12.72 135.51,38.15 38.71,25.43 66.81,60.55 84.27,105.34l0 -135.52 130.96 0 0 627.48 -58.07 0c-21.26,0 -38.72,-6.83 -52.39,-20.5 -13.67,-13.67 -20.5,-31.13 -20.5,-52.38l0 -63.78c-17.46,44.79 -45.55,80.09 -84.27,105.91 -38.72,25.81 -83.89,38.72 -135.51,38.72zm29.6 -112.74c32.64,0 63.39,-7.97 92.24,-23.92 28.85,-15.94 52.38,-39.67 70.6,-71.18 18.22,-31.5 27.33,-69.65 27.33,-114.45 0,-45.55 -9.11,-83.7 -27.33,-114.45 -18.22,-30.75 -41.75,-54.09 -70.6,-70.03 -28.85,-15.94 -59.6,-23.92 -92.24,-23.92 -31.88,0 -62.44,7.97 -91.67,23.92 -29.23,15.94 -52.96,39.28 -71.17,70.03 -18.22,30.75 -27.33,68.9 -27.33,114.45 0,44.79 9.11,82.95 27.33,114.45 18.22,31.51 41.94,55.23 71.17,71.18 29.23,15.94 59.79,23.92 91.67,23.92z"/>
  </g>
 </g>
</svg>
